# Blender 4.1.1
# www.blender.org
g lid_Mesh
v -0.124388 0.132804 0.089512
v -0.124388 0.132804 0.124387
v 0.124388 0.132804 0.089512
v 0.124388 0.132804 0.124387
v -0.124388 0.132804 -0.124388
v 0.124388 0.132804 -0.124388
v -0.106950 0.132804 -0.089513
v -0.106950 0.132804 0.089512
v 0.106950 0.132804 -0.089513
v 0.106950 0.132804 0.089512
v 0.069513 0.132804 0.124387
v 0.106950 0.132804 -0.089513
v 0.069513 0.132804 -0.124388
v 0.124388 0.132804 -0.089513
v -0.069513 0.132804 0.124387
v -0.069513 0.132804 -0.124388
v -0.106950 0.132804 -0.089513
v -0.124388 0.132804 -0.089513
v -0.124388 0.180405 -0.114919
v -0.124388 0.220759 -0.087955
v -0.124388 0.167059 -0.082699
v -0.124388 0.247723 -0.047601
v -0.124388 0.196099 -0.063295
v -0.124388 0.215503 -0.034255
v -0.124388 0.257192 -0.000000
v -0.124388 0.222317 -0.000000
v -0.124388 0.215503 0.034255
v -0.124388 0.247723 0.047601
v -0.124388 0.196099 0.063295
v -0.124388 0.220759 0.087955
v -0.124388 0.167059 0.082699
v -0.124388 0.180405 0.114919
v 0.124388 0.180405 -0.114919
v 0.124388 0.220759 -0.087955
v 0.124388 0.167059 -0.082699
v 0.124388 0.247723 -0.047601
v 0.124388 0.196099 -0.063295
v 0.124388 0.215503 -0.034255
v 0.124388 0.257192 -0.000000
v 0.124388 0.222317 -0.000000
v 0.124388 0.215503 0.034255
v 0.124388 0.247723 0.047601
v 0.124388 0.196099 0.063295
v 0.124388 0.220759 0.087955
v 0.124388 0.167059 0.082699
v 0.124388 0.180405 0.114919
v 0.106950 0.167059 -0.082699
v 0.106950 0.196099 -0.063295
v -0.106950 0.215503 -0.034255
v -0.106950 0.196099 -0.063295
v 0.106950 0.196099 0.063295
v 0.106950 0.215503 0.034255
v -0.106950 0.167059 0.082699
v -0.106950 0.196099 0.063295
v -0.106950 0.222317 -0.000000
v -0.106950 0.167059 -0.082699
v 0.106950 0.222317 -0.000000
v 0.106950 0.215503 -0.034255
v 0.106950 0.167059 0.082699
v -0.106950 0.215503 0.034255
v 0.069513 0.247723 -0.047601
v -0.069513 0.247723 -0.047601
v 0.069513 0.220759 -0.087955
v -0.069513 0.220759 -0.087955
v 0.069513 0.180405 0.114919
v -0.069513 0.180405 0.114919
v -0.069513 0.180405 -0.114919
v 0.069513 0.180405 -0.114919
v 0.069513 0.247723 0.047601
v -0.069513 0.247723 0.047601
v 0.069513 0.257192 -0.000000
v -0.069513 0.257192 -0.000000
v 0.069513 0.220759 0.087955
v -0.069513 0.220759 0.087955
v 0.106950 0.215503 0.034255
v -0.106950 0.215503 0.034255
v -0.069513 0.180405 -0.114919
v -0.069513 0.220759 -0.087955
v -0.124388 0.180405 -0.114919
v -0.124388 0.220759 -0.087955
v -0.069513 0.247723 -0.047601
v -0.124388 0.247723 -0.047601
v 0.069513 0.180405 -0.114919
v 0.124388 0.180405 -0.114919
v 0.069513 0.220759 -0.087955
v 0.124388 0.220759 -0.087955
v 0.124388 0.247723 -0.047601
v 0.069513 0.247723 -0.047601
v -0.069513 0.220759 0.087955
v -0.124388 0.220759 0.087955
v 0.124388 0.220759 0.087955
v 0.069513 0.220759 0.087955
v -0.028800 0.097804 0.106950
v -0.028800 0.132804 0.106950
v -0.028800 0.097804 0.124387
v -0.028800 0.132804 0.124387
v 0.018800 0.087804 0.124387
v 0.018800 0.087804 0.106950
v -0.018800 0.087804 0.124387
v -0.018800 0.087804 0.106950
v 0.028800 0.132804 0.106950
v 0.028800 0.097804 0.106950
v 0.028800 0.132804 0.124387
v 0.028800 0.097804 0.124387
vn -0.0000 -1.0000 -0.0000
vn -1.0000 -0.0000 -0.0000
vn 1.0000 -0.0000 -0.0000
vn -0.0000 -0.3827 0.9239
vn -0.0000 -0.7071 0.7071
vn -0.0000 -0.9239 0.3827
vn -0.0000 -0.7071 -0.7071
vn -0.0000 -0.9239 -0.3827
vn -0.0000 -0.3827 -0.9239
vn -0.0000 -0.1951 0.9808
vn -0.0000 -0.3826 0.9239
vn -0.0000 -0.9239 0.3826
vn -0.0000 -0.3826 -0.9239
vn -0.0000 -0.1951 -0.9808
vn -0.0000 -0.9239 -0.3826
vn -0.0000 0.7071 -0.7071
vn -0.0000 0.9239 -0.3827
vn -0.0000 0.3826 0.9239
vn -0.0000 0.1951 0.9808
vn -0.0000 0.3827 -0.9239
vn -0.0000 1.0000 -0.0000
vn -0.0000 0.9239 0.3826
vn -0.0000 0.3826 -0.9239
vn -0.0000 0.1951 -0.9808
vn -0.0000 0.7071 0.7071
vn -0.0000 0.3827 0.9239
vn -0.0000 0.9239 -0.3826
vn -0.0000 0.9239 0.3827
vn -0.0001 0.7071 -0.7071
vn 0.0001 0.7071 0.7071
vn -0.9151 -0.4033 -0.0000
vn -0.3561 -0.9345 -0.0000
vn 0.3561 -0.9345 -0.0000
vn 0.9151 -0.4033 -0.0000
vn -0.9150 -0.4033 -0.0000
vn -0.3561 -0.9345 0.0001
vn 0.9150 -0.4033 -0.0000
vn 0.3561 -0.9345 0.0001
vn -0.0000 -0.0000 1.0000
vn -0.0000 -0.0000 -1.0000
vt 0.593750 0.075000
vt 0.593750 0.113268
vt 0.593750 0.145711
vt 0.593750 0.102539
vt 0.593750 0.167388
vt 0.593750 0.125885
vt 0.593750 0.141485
vt 0.593750 0.175000
vt 0.593750 0.146963
vt 0.593750 0.052539
vt 0.593750 0.025000
vt 0.593750 0.075885
vt 0.593750 0.091485
vt 0.593750 0.096963
vt 0.593750 0.063268
vt 0.593750 0.095711
vt 0.593750 0.125000
vt 0.593750 0.117388
vt 0.343750 0.069444
vt 0.343750 0.225000
vt 0.343750 0.025000
s 0
g off
f 11/1/1 3/1/1 4/1/1
f 3/1/1 11/1/1 10/1/1
f 10/1/1 11/1/1 12/1/1
f 13/1/1 12/1/1 11/1/1
f 13/1/1 14/1/1 12/1/1
f 14/1/1 13/1/1 6/1/1
f 13/1/1 11/1/1 15/1/1
f 13/1/1 15/1/1 16/1/1
f 16/1/1 15/1/1 8/1/1
f 8/1/1 15/1/1 2/1/1
f 8/1/1 2/1/1 1/1/1
f 17/1/1 16/1/1 8/1/1
f 16/1/1 17/1/1 5/1/1
f 5/1/1 17/1/1 18/1/1
f 18/1/2 19/2/2 5/1/2
f 19/2/2 18/1/2 20/3/2
f 20/3/2 18/1/2 21/4/2
f 20/3/2 21/4/2 22/5/2
f 22/5/2 21/4/2 23/6/2
f 22/5/2 23/6/2 24/7/2
f 22/5/2 24/7/2 25/8/2
f 25/8/2 24/7/2 26/9/2
f 25/8/2 26/9/2 27/7/2
f 25/8/2 27/7/2 28/5/2
f 28/5/2 27/7/2 29/6/2
f 28/5/2 29/6/2 30/3/2
f 30/3/2 29/6/2 31/4/2
f 30/3/2 31/4/2 1/1/2
f 30/3/2 1/1/2 32/2/2
f 32/2/2 1/1/2 2/1/2
f 33/2/3 14/1/3 6/1/3
f 14/1/3 33/2/3 34/3/3
f 14/1/3 34/3/3 35/4/3
f 35/4/3 34/3/3 36/5/3
f 35/4/3 36/5/3 37/6/3
f 37/6/3 36/5/3 38/7/3
f 38/7/3 36/5/3 39/8/3
f 38/7/3 39/8/3 40/9/3
f 40/9/3 39/8/3 41/7/3
f 41/7/3 39/8/3 42/5/3
f 41/7/3 42/5/3 43/6/3
f 43/6/3 42/5/3 44/3/3
f 43/6/3 44/3/3 45/4/3
f 45/4/3 44/3/3 3/1/3
f 3/1/3 44/3/3 46/2/3
f 3/1/3 46/2/3 4/1/3
f 35/4/4 48/6/5 47/4/4
f 48/6/5 35/4/4 37/6/5
f 24/7/6 50/6/5 49/7/6
f 50/6/5 24/7/6 23/6/5
f 51/6/7 41/7/8 43/6/7
f 41/7/8 51/6/7 52/7/8
f 29/6/7 53/4/9 31/4/9
f 53/4/9 29/6/7 54/6/7
f 14/1/10 47/4/11 12/1/10
f 47/4/11 14/1/10 35/4/11
f 26/9/1 49/7/12 55/9/1
f 49/7/12 26/9/1 24/7/12
f 56/4/4 23/6/5 21/4/4
f 23/6/5 56/4/4 50/6/5
f 31/4/13 8/1/14 1/1/14
f 8/1/14 31/4/13 53/4/13
f 57/9/1 38/7/12 40/9/1
f 38/7/12 57/9/1 58/7/12
f 58/7/6 37/6/5 38/7/6
f 37/6/5 58/7/6 48/6/5
f 51/6/7 45/4/9 59/4/9
f 45/4/9 51/6/7 43/6/7
f 59/4/13 3/1/14 10/1/14
f 3/1/14 59/4/13 45/4/13
f 52/7/15 40/9/1 41/7/15
f 40/9/1 52/7/15 57/9/1
f 17/1/10 21/4/11 18/1/10
f 21/4/11 17/1/10 56/4/11
f 29/6/7 60/7/8 54/6/7
f 60/7/8 29/6/7 27/7/8
f 27/7/15 55/9/1 60/7/15
f 55/9/1 27/7/15 26/9/1
f 63/3/16 62/5/17 61/5/17
f 62/5/17 63/3/16 64/3/16
f 65/2/18 15/1/19 11/1/19
f 15/1/19 65/2/18 66/2/18
f 64/3/16 68/2/20 67/2/20
f 68/2/20 64/3/16 63/3/16
f 71/8/21 70/5/22 69/5/22
f 70/5/22 71/8/21 72/8/21
f 67/2/23 13/1/24 16/1/24
f 13/1/24 67/2/23 68/2/23
f 73/3/25 66/2/26 65/2/26
f 66/2/26 73/3/25 74/3/25
f 61/5/27 72/8/21 71/8/21
f 72/8/21 61/5/27 62/5/27
f 69/5/28 74/3/25 73/3/25
f 74/3/25 69/5/28 70/5/28
f 47/10/3 10/11/3 9/11/3
f 10/11/3 47/10/3 48/12/3
f 10/11/3 48/12/3 58/13/3
f 10/11/3 58/13/3 57/14/3
f 10/11/3 57/14/3 75/13/3
f 10/11/3 75/13/3 51/12/3
f 10/11/3 51/12/3 59/10/3
f 8/11/2 56/10/2 7/11/2
f 56/10/2 8/11/2 50/12/2
f 50/12/2 8/11/2 49/13/2
f 49/13/2 8/11/2 55/14/2
f 55/14/2 8/11/2 76/13/2
f 76/13/2 8/11/2 54/12/2
f 54/12/2 8/11/2 53/10/2
f 79/15/20 78/16/16 77/15/20
f 78/16/16 79/15/20 80/16/16
f 72/17/21 28/18/22 70/18/22
f 28/18/22 72/17/21 25/17/21
f 78/16/16 82/18/17 81/18/17
f 82/18/17 78/16/16 80/16/16
f 66/15/18 2/11/19 15/11/19
f 2/11/19 66/15/18 32/15/18
f 79/15/23 16/11/24 5/11/24
f 16/11/24 79/15/23 77/15/23
f 81/18/27 25/17/21 72/17/21
f 25/17/21 81/18/27 82/18/27
f 85/16/16 84/15/20 83/15/20
f 84/15/20 85/16/16 86/16/29
f 86/16/16 88/18/17 87/18/17
f 88/18/17 86/16/16 85/16/16
f 89/16/25 32/15/26 66/15/26
f 32/15/26 89/16/25 90/16/30
f 39/17/21 69/18/22 42/18/22
f 69/18/22 39/17/21 71/17/21
f 87/18/27 71/17/21 39/17/21
f 71/17/21 87/18/27 88/18/27
f 70/18/28 90/16/25 89/16/25
f 90/16/25 70/18/28 28/18/28
f 83/15/23 6/11/24 13/11/24
f 6/11/24 83/15/23 84/15/23
f 91/16/25 65/15/26 46/15/26
f 65/15/26 91/16/25 92/16/30
f 46/15/18 11/11/19 4/11/19
f 11/11/19 46/15/18 65/15/18
f 42/18/28 92/16/25 91/16/25
f 92/16/25 42/18/28 69/18/28
f 95/19/31 94/20/2 93/19/31
f 94/20/2 95/19/31 96/20/2
f 99/21/32 98/21/33 97/21/33
f 98/21/33 99/21/32 100/21/32
f 103/20/3 102/19/34 101/20/3
f 102/19/34 103/20/3 104/19/34
f 99/21/32 93/19/35 100/21/32
f 93/19/35 99/21/36 95/19/35
f 104/19/37 98/21/38 102/19/37
f 98/21/33 104/19/37 97/21/33
f 104/19/39 99/21/39 97/21/39
f 99/21/39 104/19/39 95/19/39
f 95/19/39 104/19/39 103/20/39
f 95/19/39 103/20/39 96/20/39
f 93/19/40 98/21/40 100/21/40
f 98/21/40 93/19/40 102/19/40
f 102/19/40 93/19/40 94/20/40
f 102/19/40 94/20/40 101/20/40
