# Blender 3.6.9
# www.blender.org
mtllib roadOutside.mtl
o Cap_2_7
v 3.021885 0.246659 -3.222602
v 3.007529 0.246659 -3.493687
v 2.965350 0.246659 -3.757208
v 2.896679 0.246659 -4.011953
v 2.802847 0.246659 -4.256705
v 2.685187 0.246659 -4.490252
v 2.545029 0.246659 -4.711378
v 2.383705 0.246659 -4.918869
v 2.202547 0.246659 -5.111512
v 2.002887 0.246659 -5.288092
v 1.786055 0.246659 -5.447395
v 1.553384 0.246659 -5.588206
v 1.306205 0.246659 -5.709312
v 1.045850 0.246659 -5.809498
v 0.773649 0.246659 -5.887550
v 0.490936 0.246659 -5.942253
v 0.297277 0.246659 -5.965150
v 0.000000 0.246659 -5.978241
v -0.297276 0.246659 -5.965150
v -0.586259 0.246659 -5.926687
v -0.865616 0.246659 -5.864067
v -1.134016 0.246659 -5.778502
v -1.390127 0.246659 -5.671208
v -1.632618 0.246659 -5.543399
v -1.860157 0.246659 -5.396289
v -2.071413 0.246659 -5.231092
v -2.265054 0.246659 -5.049023
v -2.439748 0.246659 -4.851295
v -2.594165 0.246659 -4.639124
v -2.726972 0.246659 -4.413723
v -2.836837 0.246659 -4.176306
v -2.922430 0.246659 -3.928088
v -2.982419 0.246659 -3.670284
v -3.007529 0.246659 -3.493688
v -3.021884 0.246659 -3.222602
v -3.019342 0.246659 -3.174136
v -3.006648 0.246659 -3.091915
v -2.965292 0.246659 -2.931279
v -2.545147 0.246659 -1.580762
v -2.499351 0.246659 -1.305314
v -2.477724 0.246659 -0.970030
v -2.487615 0.246659 -0.749880
v -2.524269 0.246659 -0.477355
v -2.609228 0.246659 -0.106513
v -3.011994 0.246659 1.143143
v -3.019342 0.246659 1.196247
v -3.021885 0.246659 1.244418
v -3.007529 0.246659 1.515503
v -2.965350 0.246659 1.779024
v -2.896679 0.246659 2.033769
v -2.802847 0.246659 2.278521
v -2.685186 0.246659 2.512067
v -2.545028 0.246660 2.733193
v -2.383705 0.246660 2.940685
v -2.202547 0.246660 3.133328
v -2.002887 0.246660 3.309908
v -1.786055 0.246660 3.469211
v -1.553384 0.246660 3.610023
v -1.306205 0.246660 3.731128
v -1.045849 0.246660 3.831314
v -0.773649 0.246660 3.909366
v -0.490936 0.246660 3.964069
v -0.297277 0.246660 3.986967
v -0.000000 0.246660 4.000057
v 0.297276 0.246660 3.986967
v 0.586259 0.246660 3.948503
v 0.865616 0.246660 3.885883
v 1.134016 0.246660 3.800318
v 1.390127 0.246660 3.693024
v 1.632618 0.246660 3.565215
v 1.860157 0.246660 3.418105
v 2.071413 0.246660 3.252908
v 2.265054 0.246660 3.070839
v 2.439749 0.246660 2.873111
v 2.594165 0.246660 2.660940
v 2.726972 0.246659 2.435539
v 2.836838 0.246659 2.198122
v 2.922430 0.246659 1.949904
v 2.982419 0.246659 1.692100
v 3.007529 0.246659 1.515503
v 3.021885 0.246659 1.244418
v 3.019342 0.246659 1.196646
v 3.006648 0.246659 1.115718
v 2.965292 0.246659 0.957834
v 2.545148 0.246659 -0.368548
v 2.499351 0.246659 -0.639617
v 2.477724 0.246659 -0.970038
v 2.492960 0.246659 -1.249025
v 2.545148 0.246659 -1.579462
v 2.653736 0.246659 -2.003233
v 3.006649 0.246659 -3.090986
v 3.016243 0.246659 -3.147380
v 2.061216 0.246659 -0.969943
v 2.076504 0.246659 -0.693105
v 2.128869 0.246659 -0.365768
v 2.237826 0.246659 0.053254
v 2.591939 0.246659 1.125196
v 2.601566 0.246659 1.180605
v 2.607227 0.246659 1.254471
v 2.594731 0.246659 1.486374
v 2.558037 0.246659 1.711389
v 2.498336 0.246659 1.928531
v 2.416820 0.246659 2.136818
v 2.314679 0.246659 2.335266
v 2.193104 0.246659 2.522892
v 2.053287 0.246660 2.698710
v 1.896417 0.246660 2.861740
v 1.723687 0.246660 3.010996
v 1.536288 0.246660 3.145494
v 1.335410 0.246660 3.264253
v 1.048665 0.246660 3.396413
v 0.742898 0.246660 3.496510
v 0.420933 0.246660 3.562212
v 0.254759 0.246660 3.581437
v -0.000000 0.246660 3.592422
v -0.338246 0.246660 3.572990
v -0.663821 0.246660 3.516248
v -0.973903 0.246660 3.424528
v -1.265669 0.246660 3.300162
v -1.470775 0.246660 3.186865
v -1.662799 0.246660 3.057499
v -1.840551 0.246660 2.913050
v -2.002838 0.246660 2.754498
v -2.148471 0.246660 2.582829
v -2.276258 0.246659 2.399025
v -2.385009 0.246659 2.204072
v -2.473532 0.246659 1.998951
v -2.540636 0.246659 1.784648
v -2.585131 0.246659 1.562144
v -2.601645 0.246659 1.409739
v -2.607228 0.246659 1.254419
v -2.604677 0.246659 1.206035
v -2.591940 0.246659 1.124230
v -2.550443 0.246659 0.964990
v -2.128869 0.246659 -0.367060
v -2.082916 0.246659 -0.638796
v -2.061216 0.246659 -0.969923
v -2.076504 0.246659 -1.250790
v -2.128869 0.246659 -1.583367
v -2.237827 0.246659 -2.009676
v -2.591940 0.246659 -3.101304
v -2.601567 0.246659 -3.157610
v -2.607229 0.246659 -3.232573
v -2.594733 0.246659 -3.464479
v -2.558039 0.246659 -3.689499
v -2.498340 0.246659 -3.906647
v -2.416824 0.246659 -4.114940
v -2.314684 0.246659 -4.313395
v -2.193111 0.246659 -4.501027
v -2.053294 0.246659 -4.676852
v -1.896426 0.246659 -4.839888
v -1.723697 0.246659 -4.989150
v -1.536299 0.246659 -5.123656
v -1.335421 0.246659 -5.242420
v -1.048675 0.246659 -5.374586
v -0.742907 0.246659 -5.474689
v -0.420939 0.246659 -5.540394
v -0.254763 0.246659 -5.559620
v 0.000000 0.246659 -5.570606
v 0.338250 0.246659 -5.551173
v 0.663829 0.246659 -5.494428
v 0.973913 0.246659 -5.402703
v 1.265679 0.246659 -5.278330
v 1.470785 0.246659 -5.165028
v 1.662809 0.246659 -5.035657
v 1.840560 0.246659 -4.891200
v 2.002847 0.246659 -4.732643
v 2.148479 0.246659 -4.560966
v 2.276264 0.246659 -4.377157
v 2.385014 0.246659 -4.182197
v 2.473536 0.246659 -3.977070
v 2.540639 0.246659 -3.762761
v 2.585133 0.246659 -3.540252
v 2.601647 0.246659 -3.387844
v 2.607229 0.246659 -3.232521
v 2.604679 0.246659 -3.183434
v 2.591941 0.246659 -3.100323
v 2.550444 0.246659 -2.938312
v 2.118001 0.246659 -1.527293
v 2.076504 0.246659 -1.250157
vn -0.0000 1.0000 -0.0000
vt 0.724831 0.958444
vt 0.719911 0.958189
vt 0.716298 0.999435
vt 0.723837 1.000000
vt 0.710647 0.998473
vt 0.711582 0.956912
vt 0.695346 0.952753
vt 0.601635 0.963105
vt 0.553937 0.909415
vt 0.559165 0.952223
vt 0.526050 0.946993
vt 0.526163 0.905256
vt 0.498091 0.945466
vt 0.498081 0.903724
vt 0.470337 0.905256
vt 0.464977 0.947633
vt 0.437532 0.910504
vt 0.437811 0.952223
vt 0.395539 0.921424
vt 0.304884 0.994328
vt 0.288111 0.956912
vt 0.289061 0.998473
vt 0.282558 0.957877
vt 0.280951 0.999745
vt 0.275156 0.958444
vt 0.276163 1.000000
vt 0.248996 0.998561
vt 0.251915 0.957192
vt 0.231298 0.996045
vt 0.229365 0.953514
vt 0.205461 0.990033
vt 0.207603 0.947531
vt 0.180585 0.981455
vt 0.186729 0.939362
vt 0.156792 0.970445
vt 0.166841 0.929126
vt 0.134203 0.957135
vt 0.148038 0.916942
vt 0.112940 0.941660
vt 0.130418 0.902930
vt 0.093124 0.924152
vt 0.114079 0.887209
vt 0.074877 0.904746
vt 0.099121 0.869898
vt 0.058322 0.883575
vt 0.085642 0.851117
vt 0.043579 0.860771
vt 0.073740 0.830986
vt 0.030770 0.836469
vt 0.060496 0.802249
vt 0.020017 0.810803
vt 0.050464 0.771606
vt 0.011442 0.783904
vt 0.005167 0.755908
vt 0.043880 0.739339
vt 0.001312 0.726947
vt 0.041953 0.722686
vt 0.000000 0.697154
vt 0.040852 0.697154
vt 0.001312 0.667362
vt 0.042800 0.663256
vt 0.003607 0.647954
vt 0.048486 0.630628
vt 0.009089 0.619621
vt 0.016911 0.592342
vt 0.057678 0.599552
vt 0.026951 0.566250
vt 0.070142 0.570312
vt 0.039088 0.541478
vt 0.081496 0.549757
vt 0.053200 0.518160
vt 0.094461 0.530513
vt 0.069165 0.496430
vt 0.108937 0.512699
vt 0.086861 0.476421
vt 0.124827 0.496435
vt 0.106168 0.458265
vt 0.142031 0.481840
vt 0.126962 0.442098
vt 0.160451 0.469033
vt 0.149123 0.428052
vt 0.179989 0.458135
vt 0.172528 0.416260
vt 0.200546 0.449263
vt 0.197057 0.406857
vt 0.222023 0.442538
vt 0.222586 0.399974
vt 0.244321 0.438079
vt 0.248996 0.395747
vt 0.259595 0.436424
vt 0.276163 0.394309
vt 0.275161 0.435865
vt 0.280991 0.394563
vt 0.280010 0.436120
vt 0.286313 0.395300
vt 0.304167 0.441555
vt 0.411550 0.435664
vt 0.288208 0.437397
vt 0.437662 0.483804
vt 0.448715 0.444178
vt 0.464894 0.488410
vt 0.476027 0.447852
vt 0.498079 0.490584
vt 0.498090 0.448843
vt 0.526227 0.489052
vt 0.531691 0.446676
vt 0.559557 0.483804
vt 0.559296 0.442086
vt 0.602280 0.472885
vt 0.694641 0.399980
vt 0.711681 0.437397
vt 0.710740 0.395836
vt 0.717323 0.436432
vt 0.718980 0.394563
vt 0.724836 0.435864
vt 0.723837 0.394309
vt 0.751004 0.395747
vt 0.748077 0.437117
vt 0.768702 0.398264
vt 0.770628 0.440794
vt 0.794539 0.404276
vt 0.792390 0.446777
vt 0.819415 0.412854
vt 0.813265 0.454946
vt 0.843208 0.423864
vt 0.833153 0.465182
vt 0.865797 0.437174
vt 0.851957 0.477366
vt 0.887060 0.452649
vt 0.869578 0.491378
vt 0.906876 0.470156
vt 0.885917 0.507099
vt 0.925123 0.489563
vt 0.900876 0.524410
vt 0.941678 0.510734
vt 0.914356 0.543190
vt 0.956421 0.533537
vt 0.926258 0.563322
vt 0.969230 0.557839
vt 0.939503 0.592059
vt 0.979983 0.583506
vt 0.949535 0.622702
vt 0.988558 0.610404
vt 0.994833 0.638401
vt 0.956120 0.654969
vt 0.998688 0.667362
vt 0.958047 0.671623
vt 1.000000 0.697154
vt 0.959148 0.697154
vt 0.998688 0.726947
vt 0.957200 0.731053
vt 0.996393 0.746355
vt 0.951513 0.763682
vt 0.990911 0.774687
vt 0.983089 0.801967
vt 0.942321 0.794757
vt 0.973049 0.828059
vt 0.929857 0.823997
vt 0.960912 0.852831
vt 0.918502 0.844553
vt 0.946800 0.876148
vt 0.905537 0.863797
vt 0.930835 0.897879
vt 0.891059 0.881611
vt 0.913139 0.917888
vt 0.875169 0.897875
vt 0.893832 0.936043
vt 0.857964 0.912469
vt 0.873038 0.952211
vt 0.839543 0.925276
vt 0.850877 0.966257
vt 0.820005 0.936174
vt 0.827472 0.978049
vt 0.799448 0.945046
vt 0.802943 0.987452
vt 0.777970 0.951771
vt 0.777414 0.994334
vt 0.755671 0.956230
vt 0.751004 0.998561
vt 0.740397 0.957885
s 1
usemtl Mat.006
f 175/1/1 176/2/1 92/3/1
f 1/4/1 175/1/1 92/3/1
f 176/2/1 91/5/1 92/3/1
f 176/2/1 177/6/1 91/5/1
f 178/7/1 90/8/1 91/5/1
f 177/6/1 178/7/1 91/5/1
f 179/9/1 89/10/1 90/8/1
f 178/7/1 179/9/1 90/8/1
f 179/9/1 88/11/1 89/10/1
f 179/9/1 180/12/1 88/11/1
f 180/12/1 87/13/1 88/11/1
f 180/12/1 93/14/1 87/13/1
f 94/15/1 86/16/1 87/13/1
f 93/14/1 94/15/1 87/13/1
f 95/17/1 85/18/1 86/16/1
f 94/15/1 95/17/1 86/16/1
f 96/19/1 84/20/1 85/18/1
f 95/17/1 96/19/1 85/18/1
f 97/21/1 83/22/1 84/20/1
f 96/19/1 97/21/1 84/20/1
f 98/23/1 82/24/1 83/22/1
f 97/21/1 98/23/1 83/22/1
f 99/25/1 81/26/1 82/24/1
f 98/23/1 99/25/1 82/24/1
f 99/25/1 80/27/1 81/26/1
f 99/25/1 100/28/1 80/27/1
f 100/28/1 79/29/1 80/27/1
f 101/30/1 78/31/1 79/29/1
f 100/28/1 101/30/1 79/29/1
f 101/30/1 102/32/1 78/31/1
f 102/32/1 77/33/1 78/31/1
f 102/32/1 103/34/1 77/33/1
f 103/34/1 76/35/1 77/33/1
f 103/34/1 104/36/1 76/35/1
f 104/36/1 75/37/1 76/35/1
f 104/36/1 105/38/1 75/37/1
f 105/38/1 74/39/1 75/37/1
f 105/38/1 106/40/1 74/39/1
f 106/40/1 73/41/1 74/39/1
f 106/40/1 107/42/1 73/41/1
f 107/42/1 72/43/1 73/41/1
f 107/42/1 108/44/1 72/43/1
f 108/44/1 71/45/1 72/43/1
f 108/44/1 109/46/1 71/45/1
f 109/46/1 70/47/1 71/45/1
f 109/46/1 110/48/1 70/47/1
f 110/48/1 69/49/1 70/47/1
f 110/48/1 111/50/1 69/49/1
f 111/50/1 68/51/1 69/49/1
f 111/50/1 112/52/1 68/51/1
f 112/52/1 67/53/1 68/51/1
f 112/52/1 66/54/1 67/53/1
f 112/52/1 113/55/1 66/54/1
f 113/55/1 65/56/1 66/54/1
f 113/55/1 114/57/1 65/56/1
f 114/57/1 64/58/1 65/56/1
f 115/59/1 63/60/1 64/58/1
f 114/57/1 115/59/1 64/58/1
f 116/61/1 62/62/1 63/60/1
f 115/59/1 116/61/1 63/60/1
f 117/63/1 61/64/1 62/62/1
f 116/61/1 117/63/1 62/62/1
f 117/63/1 60/65/1 61/64/1
f 118/66/1 59/67/1 60/65/1
f 117/63/1 118/66/1 60/65/1
f 119/68/1 58/69/1 59/67/1
f 118/66/1 119/68/1 59/67/1
f 120/70/1 57/71/1 58/69/1
f 119/68/1 120/70/1 58/69/1
f 121/72/1 56/73/1 57/71/1
f 120/70/1 121/72/1 57/71/1
f 122/74/1 55/75/1 56/73/1
f 121/72/1 122/74/1 56/73/1
f 123/76/1 54/77/1 55/75/1
f 122/74/1 123/76/1 55/75/1
f 124/78/1 53/79/1 54/77/1
f 123/76/1 124/78/1 54/77/1
f 125/80/1 52/81/1 53/79/1
f 124/78/1 125/80/1 53/79/1
f 126/82/1 51/83/1 52/81/1
f 125/80/1 126/82/1 52/81/1
f 127/84/1 50/85/1 51/83/1
f 126/82/1 127/84/1 51/83/1
f 128/86/1 49/87/1 50/85/1
f 127/84/1 128/86/1 50/85/1
f 129/88/1 48/89/1 49/87/1
f 128/86/1 129/88/1 49/87/1
f 130/90/1 47/91/1 48/89/1
f 129/88/1 130/90/1 48/89/1
f 131/92/1 46/93/1 47/91/1
f 130/90/1 131/92/1 47/91/1
f 132/94/1 45/95/1 46/93/1
f 131/92/1 132/94/1 46/93/1
f 134/96/1 44/97/1 45/95/1
f 133/98/1 134/96/1 45/95/1
f 132/94/1 133/98/1 45/95/1
f 135/99/1 43/100/1 44/97/1
f 134/96/1 135/99/1 44/97/1
f 136/101/1 42/102/1 43/100/1
f 135/99/1 136/101/1 43/100/1
f 137/103/1 41/104/1 42/102/1
f 136/101/1 137/103/1 42/102/1
f 138/105/1 40/106/1 41/104/1
f 137/103/1 138/105/1 41/104/1
f 139/107/1 39/108/1 40/106/1
f 138/105/1 139/107/1 40/106/1
f 140/109/1 38/110/1 39/108/1
f 139/107/1 140/109/1 39/108/1
f 141/111/1 37/112/1 38/110/1
f 140/109/1 141/111/1 38/110/1
f 142/113/1 36/114/1 37/112/1
f 141/111/1 142/113/1 37/112/1
f 143/115/1 35/116/1 36/114/1
f 142/113/1 143/115/1 36/114/1
f 143/115/1 34/117/1 35/116/1
f 144/118/1 33/119/1 34/117/1
f 143/115/1 144/118/1 34/117/1
f 145/120/1 32/121/1 33/119/1
f 144/118/1 145/120/1 33/119/1
f 146/122/1 31/123/1 32/121/1
f 145/120/1 146/122/1 32/121/1
f 147/124/1 30/125/1 31/123/1
f 146/122/1 147/124/1 31/123/1
f 148/126/1 29/127/1 30/125/1
f 147/124/1 148/126/1 30/125/1
f 149/128/1 28/129/1 29/127/1
f 148/126/1 149/128/1 29/127/1
f 150/130/1 27/131/1 28/129/1
f 149/128/1 150/130/1 28/129/1
f 151/132/1 26/133/1 27/131/1
f 150/130/1 151/132/1 27/131/1
f 152/134/1 25/135/1 26/133/1
f 151/132/1 152/134/1 26/133/1
f 153/136/1 24/137/1 25/135/1
f 152/134/1 153/136/1 25/135/1
f 154/138/1 23/139/1 24/137/1
f 153/136/1 154/138/1 24/137/1
f 155/140/1 22/141/1 23/139/1
f 154/138/1 155/140/1 23/139/1
f 156/142/1 21/143/1 22/141/1
f 155/140/1 156/142/1 22/141/1
f 156/142/1 20/144/1 21/143/1
f 157/145/1 19/146/1 20/144/1
f 156/142/1 157/145/1 20/144/1
f 158/147/1 18/148/1 19/146/1
f 157/145/1 158/147/1 19/146/1
f 159/149/1 17/150/1 18/148/1
f 158/147/1 159/149/1 18/148/1
f 160/151/1 16/152/1 17/150/1
f 159/149/1 160/151/1 17/150/1
f 161/153/1 15/154/1 16/152/1
f 160/151/1 161/153/1 16/152/1
f 161/153/1 14/155/1 15/154/1
f 162/156/1 13/157/1 14/155/1
f 161/153/1 162/156/1 14/155/1
f 163/158/1 12/159/1 13/157/1
f 162/156/1 163/158/1 13/157/1
f 164/160/1 11/161/1 12/159/1
f 163/158/1 164/160/1 12/159/1
f 165/162/1 10/163/1 11/161/1
f 164/160/1 165/162/1 11/161/1
f 166/164/1 9/165/1 10/163/1
f 165/162/1 166/164/1 10/163/1
f 167/166/1 8/167/1 9/165/1
f 166/164/1 167/166/1 9/165/1
f 168/168/1 7/169/1 8/167/1
f 167/166/1 168/168/1 8/167/1
f 169/170/1 6/171/1 7/169/1
f 168/168/1 169/170/1 7/169/1
f 170/172/1 5/173/1 6/171/1
f 169/170/1 170/172/1 6/171/1
f 171/174/1 4/175/1 5/173/1
f 170/172/1 171/174/1 5/173/1
f 172/176/1 3/177/1 4/175/1
f 171/174/1 172/176/1 4/175/1
f 173/178/1 2/179/1 3/177/1
f 172/176/1 173/178/1 3/177/1
f 174/180/1 1/4/1 2/179/1
f 173/178/1 174/180/1 2/179/1
f 174/180/1 175/1/1 1/4/1
