# Blender 3.6.9
# www.blender.org
mtllib treeHeaders2.mtl
o Cone_2
v -1.759967 0.380600 -7.900816
v -1.727384 0.380600 -7.800524
v -1.694801 0.380600 -7.700232
v -1.662219 0.380600 -7.599940
v -1.662219 0.380600 -7.599940
v -1.759967 1.102399 -7.900816
v -1.659675 0.380600 -7.933399
v -1.559383 0.380600 -7.965981
v -1.459091 0.380600 -7.998564
v -1.459091 0.380600 -7.998564
v -1.759967 1.102399 -7.900816
v -1.792550 0.380600 -8.001108
v -1.825133 0.380600 -8.101400
v -1.857715 0.380600 -8.201693
v -1.857715 0.380600 -8.201693
v -1.759967 1.102399 -7.900816
v -1.860259 0.380600 -7.868233
v -1.960551 0.380600 -7.835650
v -2.060843 0.380600 -7.803068
v -2.060843 0.380600 -7.803068
v -1.759967 1.102399 -7.900816
vn -0.0000 -1.0000 -0.0000
vn 0.8509 0.2961 0.4339
vn -0.7995 0.1357 0.5852
vn 0.8511 0.2960 0.4337
vn 0.4334 0.2961 -0.8512
vn -0.9907 0.1357 -0.0036
vn 0.4337 0.2960 -0.8511
vn -0.8512 0.2960 -0.4334
vn -0.9894 0.0850 0.1176
vn -0.8511 0.2960 -0.4337
vn -0.4339 0.2960 0.8510
vn -0.8696 0.0850 0.4864
vn -0.4337 0.2960 0.8511
vn -0.9511 -0.0000 0.3090
vt 0.500000 0.666667
vt 0.333333 0.500000
vt 0.500000 0.500000
vt 0.500000 0.833333
vt 0.500000 1.000000
vt 0.166667 0.500000
vt 0.250000 0.000000
vt 0.000000 1.000000
vt 0.000000 0.000000
vt 0.666667 0.500000
vt 0.833333 0.500000
vt 1.000000 0.500000
vt 0.500000 0.000000
vt 0.250000 1.000000
vt 0.500000 0.333333
vt 0.500000 0.166667
vt 0.750000 0.000000
vt 0.000000 0.500000
vt 1.000000 0.000000
vt 0.750000 1.000000
vt 1.000000 1.000000
s 1
usemtl Mat.001
f 7/1/1 2/2/1 1/3/1
f 8/4/1 2/2/1 7/1/1
f 9/5/1 3/6/1 8/4/1
f 10/7/2 6/8/3 5/9/4
f 12/10/1 7/1/1 1/3/1
f 13/11/1 7/1/1 12/10/1
f 14/12/1 8/4/1 13/11/1
f 15/13/5 11/14/6 10/7/7
f 17/15/1 12/10/1 1/3/1
f 18/16/1 12/10/1 17/15/1
f 19/13/1 13/11/1 18/16/1
f 20/17/8 16/5/9 15/13/10
f 2/2/1 17/15/1 1/3/1
f 3/6/1 17/15/1 2/2/1
f 4/18/1 18/16/1 3/6/1
f 5/19/11 21/20/12 20/17/13
f 8/4/1 3/6/1 2/2/1
f 9/5/1 4/18/1 3/6/1
f 10/7/2 11/14/14 6/8/3
f 13/11/1 8/4/1 7/1/1
f 14/12/1 9/5/1 8/4/1
f 15/13/5 16/5/14 11/14/6
f 18/16/1 13/11/1 12/10/1
f 19/13/1 14/12/1 13/11/1
f 20/17/8 21/20/14 16/5/9
f 3/6/1 18/16/1 17/15/1
f 4/18/1 19/13/1 18/16/1
f 5/19/11 6/21/14 21/20/12
o Cone_6
v -0.598103 0.514507 -2.863788
v -0.496941 0.514507 -2.834015
v -0.395779 0.514507 -2.804241
v -0.294618 0.514507 -2.774468
v -0.294618 0.514507 -2.774468
v -0.598103 1.236305 -2.863788
v -0.568329 0.514507 -2.964950
v -0.538556 0.514507 -3.066111
v -0.508782 0.514507 -3.167273
v -0.508782 0.514507 -3.167273
v -0.598103 1.236305 -2.863788
v -0.699264 0.514507 -2.893562
v -0.800426 0.514507 -2.923335
v -0.901587 0.514507 -2.953109
v -0.901587 0.514507 -2.953109
v -0.598103 1.236305 -2.863788
v -0.627876 0.514507 -2.762626
v -0.657650 0.514507 -2.661465
v -0.687423 0.514507 -2.560303
v -0.687423 0.514507 -2.560303
v -0.598103 1.236305 -2.863788
vn -0.0000 -1.0000 -0.0000
vn 0.8387 0.2961 -0.4570
vn 0.0312 0.1357 0.9903
vn 0.8386 0.2960 -0.4572
vn -0.4575 0.2961 -0.8385
vn -0.5627 0.1357 0.8155
vn -0.4572 0.2960 -0.8386
vn -0.8385 0.2960 0.4575
vn -0.4620 0.0850 0.8828
vn -0.8386 0.2960 0.4572
vn 0.4570 0.2960 0.8388
vn -0.0899 0.0850 0.9923
vn 0.4572 0.2960 0.8386
vn -0.2823 -0.0000 0.9593
vt 0.500000 0.666667
vt 0.333333 0.500000
vt 0.500000 0.500000
vt 0.500000 0.833333
vt 0.500000 1.000000
vt 0.166667 0.500000
vt 0.250000 0.000000
vt 0.000000 1.000000
vt 0.000000 0.000000
vt 0.666667 0.500000
vt 0.833333 0.500000
vt 1.000000 0.500000
vt 0.500000 0.000000
vt 0.250000 1.000000
vt 0.500000 0.333333
vt 0.500000 0.166667
vt 0.750000 0.000000
vt 0.000000 0.500000
vt 1.000000 0.000000
vt 0.750000 1.000000
vt 1.000000 1.000000
s 1
usemtl Mat
f 28/22/15 23/23/15 22/24/15
f 29/25/15 23/23/15 28/22/15
f 30/26/15 24/27/15 29/25/15
f 31/28/16 27/29/17 26/30/18
f 33/31/15 28/22/15 22/24/15
f 34/32/15 28/22/15 33/31/15
f 35/33/15 29/25/15 34/32/15
f 36/34/19 32/35/20 31/28/21
f 38/36/15 33/31/15 22/24/15
f 39/37/15 33/31/15 38/36/15
f 40/34/15 34/32/15 39/37/15
f 41/38/22 37/26/23 36/34/24
f 23/23/15 38/36/15 22/24/15
f 24/27/15 38/36/15 23/23/15
f 25/39/15 39/37/15 24/27/15
f 26/40/25 42/41/26 41/38/27
f 29/25/15 24/27/15 23/23/15
f 30/26/15 25/39/15 24/27/15
f 31/28/16 32/35/28 27/29/17
f 34/32/15 29/25/15 28/22/15
f 35/33/15 30/26/15 29/25/15
f 36/34/19 37/26/28 32/35/20
f 39/37/15 34/32/15 33/31/15
f 40/34/15 35/33/15 34/32/15
f 41/38/22 42/41/28 37/26/23
f 24/27/15 39/37/15 38/36/15
f 25/39/15 40/34/15 39/37/15
f 26/40/25 27/42/28 42/41/26
o Cone_7
v 0.533329 0.687335 -2.796143
v 0.621759 0.687335 -2.745088
v 0.710189 0.687335 -2.694033
v 0.798619 0.687335 -2.642978
v 0.798619 0.687335 -2.642978
v 0.533329 1.386260 -2.796143
v 0.631960 0.687335 -2.822571
v 0.730590 0.687335 -2.849000
v 0.829221 0.687335 -2.875427
v 0.829221 0.687335 -2.875427
v 0.533329 1.386260 -2.796143
v 0.584384 0.687335 -2.884573
v 0.635439 0.687335 -2.973003
v 0.686494 0.687335 -3.061433
v 0.686494 0.687335 -3.061433
v 0.533329 1.386260 -2.796143
v 0.506901 0.687335 -2.894774
v 0.480473 0.687335 -2.993405
v 0.454044 0.687335 -3.092036
v 0.454044 0.687335 -3.092036
v 0.533329 1.386260 -2.796143
v 0.444899 0.687335 -2.847198
v 0.356469 0.687335 -2.898253
v 0.268039 0.687335 -2.949309
v 0.268039 0.687335 -2.949309
v 0.533329 1.386260 -2.796143
v 0.434698 0.687335 -2.769715
v 0.336067 0.687335 -2.743287
v 0.237436 0.687335 -2.716859
v 0.237436 0.687335 -2.716859
v 0.533329 1.386260 -2.796143
v 0.482274 0.687335 -2.707713
v 0.431218 0.687335 -2.619283
v 0.380163 0.687335 -2.530853
v 0.380163 0.687335 -2.530853
v 0.533329 1.386260 -2.796143
v 0.559757 0.687335 -2.697512
v 0.586185 0.687335 -2.598881
v 0.612613 0.687335 -2.500251
v 0.612613 0.687335 -2.500251
v 0.533329 1.386260 -2.796143
vn -0.0000 -1.0000 -0.0000
vn 0.9190 0.3753 0.1210
vn -0.3370 0.0777 0.9383
vn 0.7354 0.3754 -0.5641
vn -0.4243 0.0880 0.9012
vn 0.7354 0.3753 -0.5643
vn 0.1210 0.3753 -0.9190
vn -0.5683 0.0880 0.8181
vn -0.5645 0.3754 -0.7351
vn -0.6441 0.0777 0.7610
vn -0.5643 0.3753 -0.7354
vn -0.9190 0.3753 -0.1210
vn -0.6270 0.0679 0.7761
vn -0.7353 0.3752 0.5644
vn -0.5496 0.0629 0.8331
vn -0.7354 0.3753 0.5643
vn -0.1210 0.3753 0.9190
vn -0.4467 0.0629 0.8925
vn 0.5640 0.3753 0.7356
vn -0.3586 0.0679 0.9310
vn 0.5643 0.3753 0.7354
vn -0.5000 -0.0000 0.8660
vt 0.382149 0.617851
vt 0.333333 0.500000
vt 0.500000 0.500000
vt 0.264298 0.735702
vt 0.146447 0.853553
vt 0.166667 0.500000
vt 0.125000 0.000000
vt 0.000000 1.000000
vt 0.000000 0.000000
vt 0.500000 0.666667
vt 0.500000 1.000000
vt 0.500000 0.833333
vt 0.250000 0.000000
vt 0.125000 1.000000
vt 0.617851 0.617851
vt 0.735702 0.735702
vt 0.853553 0.853553
vt 0.375000 0.000000
vt 0.250000 1.000000
vt 0.666667 0.500000
vt 1.000000 0.500000
vt 0.833333 0.500000
vt 0.500000 0.000000
vt 0.375000 1.000000
vt 0.617851 0.382149
vt 0.735702 0.264298
vt 0.853553 0.146447
vt 0.625000 0.000000
vt 0.500000 0.333333
vt 0.500000 0.166667
vt 0.750000 0.000000
vt 0.625000 1.000000
vt 0.382149 0.382149
vt 0.264298 0.264298
vt 0.146447 0.146447
vt 0.875000 0.000000
vt 0.750000 1.000000
vt 0.000000 0.500000
vt 1.000000 0.000000
vt 0.875000 1.000000
vt 1.000000 1.000000
s 1
usemtl Mat.005
f 49/43/29 44/44/29 43/45/29
f 50/46/29 44/44/29 49/43/29
f 51/47/29 45/48/29 50/46/29
f 52/49/30 48/50/31 47/51/30
f 54/52/29 49/43/29 43/45/29
f 54/52/29 50/46/29 49/43/29
f 56/53/29 50/46/29 55/54/29
f 57/55/32 53/56/33 52/49/34
f 59/57/29 54/52/29 43/45/29
f 60/58/29 54/52/29 59/57/29
f 61/59/29 55/54/29 60/58/29
f 62/60/35 58/61/36 57/55/35
f 64/62/29 59/57/29 43/45/29
f 64/62/29 60/58/29 59/57/29
f 66/63/29 60/58/29 65/64/29
f 67/65/37 63/66/38 62/60/39
f 69/67/29 64/62/29 43/45/29
f 70/68/29 64/62/29 69/67/29
f 71/69/29 65/64/29 70/68/29
f 72/70/40 68/53/41 67/65/40
f 74/71/29 69/67/29 43/45/29
f 74/71/29 70/68/29 69/67/29
f 76/65/29 70/68/29 75/72/29
f 77/73/42 73/74/43 72/70/44
f 79/75/29 74/71/29 43/45/29
f 80/76/29 74/71/29 79/75/29
f 81/77/29 75/72/29 80/76/29
f 82/78/45 78/79/46 77/73/45
f 44/44/29 79/75/29 43/45/29
f 44/44/29 80/76/29 79/75/29
f 46/80/29 80/76/29 45/48/29
f 47/81/47 83/82/48 82/78/49
f 50/46/29 45/48/29 44/44/29
f 51/47/29 46/80/29 45/48/29
f 52/49/30 53/56/50 48/50/31
f 54/52/29 55/54/29 50/46/29
f 56/53/29 51/47/29 50/46/29
f 57/55/32 58/61/50 53/56/33
f 60/58/29 55/54/29 54/52/29
f 61/59/29 56/53/29 55/54/29
f 62/60/35 63/66/50 58/61/36
f 64/62/29 65/64/29 60/58/29
f 66/63/29 61/59/29 60/58/29
f 67/65/37 68/53/50 63/66/38
f 70/68/29 65/64/29 64/62/29
f 71/69/29 66/63/29 65/64/29
f 72/70/40 73/74/50 68/53/41
f 74/71/29 75/72/29 70/68/29
f 76/65/29 71/69/29 70/68/29
f 77/73/42 78/79/50 73/74/43
f 80/76/29 75/72/29 74/71/29
f 81/77/29 76/65/29 75/72/29
f 82/78/45 83/82/50 78/79/46
f 44/44/29 45/48/29 80/76/29
f 46/80/29 81/77/29 80/76/29
f 47/81/47 48/83/50 83/82/48
