# Blender 3.6.9
# www.blender.org
mtllib finishHeader.mtl
o Plane
v 0.129295 1.049187 -1.897755
v 0.129295 1.049187 -0.085067
v 0.129295 1.292462 -1.897755
v 0.129295 1.292462 -0.085067
v 0.129295 1.049187 -0.285290
v 0.129295 1.292462 -0.285290
v 0.129295 1.049187 -1.643293
v 0.129295 1.292462 -1.643293
v 0.145087 1.067314 -0.303417
v 0.145087 1.274335 -0.303417
v 0.145087 1.067314 -1.625166
v 0.145087 1.274335 -1.625166
v 0.145087 1.049187 -1.897755
v 0.145087 1.049187 -0.085067
v 0.145087 1.292462 -1.897755
v 0.145087 1.292462 -0.085067
v 0.145087 1.049187 -0.285290
v 0.145087 1.292462 -0.285290
v 0.145087 1.049187 -1.643293
v 0.145087 1.292462 -1.643293
v 0.130400 1.067314 -0.303417
v 0.130400 1.274335 -0.303417
v 0.130400 1.067314 -1.625166
v 0.130400 1.274335 -1.625166
v -0.075993 1.049187 -1.897755
v -0.075993 1.049187 -0.085067
v -0.075993 1.292462 -1.897755
v -0.075993 1.292462 -0.085067
v -0.075993 1.049187 -0.285290
v -0.075993 1.292462 -0.285290
v -0.075993 1.049187 -1.643293
v -0.075993 1.292462 -1.643293
v -0.091784 1.067314 -0.303417
v -0.091784 1.274335 -0.303417
v -0.091785 1.067314 -1.625166
v -0.091785 1.274335 -1.625166
v -0.091785 1.049187 -1.897755
v -0.091784 1.049187 -0.085067
v -0.091785 1.292462 -1.897755
v -0.091784 1.292462 -0.085067
v -0.091784 1.049187 -0.285290
v -0.091784 1.292462 -0.285290
v -0.091785 1.049187 -1.643293
v -0.091785 1.292462 -1.643293
v -0.077097 1.067314 -0.303417
v -0.077097 1.274335 -0.303417
v -0.077097 1.067314 -1.625166
v -0.077097 1.274335 -1.625166
vn 1.0000 -0.0000 -0.0000
vn -0.0000 -1.0000 -0.0000
vn -0.0000 -0.0000 1.0000
vn -0.0000 1.0000 -0.0000
vn -0.0000 -0.0000 -1.0000
vn -1.0000 -0.0000 -0.0000
vt 1.000000 1.000000
vt 0.889543 0.000000
vt 0.889543 1.000000
vt 0.151803 0.015250
vt 0.878118 0.984750
vt 0.878118 0.015250
vt 0.000000 0.000000
vt 0.140378 1.000000
vt 0.140378 0.000000
vt 0.151803 0.984750
vt 1.000000 0.000000
vt 0.000000 1.000000
s 1
usemtl Mat.12
f 23/4/1 22/5/1 21/6/1
f 47/4/6 46/5/6 48/10/6
f 23/4/1 24/10/1 22/5/1
f 47/4/6 45/6/6 46/5/6
usemtl Mat.1
f 9/6/1 18/3/1 17/2/1
f 10/5/1 20/8/1 18/3/1
f 12/10/1 19/9/1 20/8/1
f 11/4/1 17/2/1 19/9/1
f 21/6/5 10/5/5 9/6/5
f 22/5/2 12/10/2 10/5/2
f 24/10/3 11/4/3 12/10/3
f 23/4/4 9/6/4 11/4/4
f 33/6/6 42/3/6 34/5/6
f 34/5/6 44/8/6 36/10/6
f 36/10/6 43/9/6 35/4/6
f 35/4/6 41/2/6 33/6/6
f 45/6/5 34/5/5 46/5/5
f 46/5/2 36/10/2 48/10/2
f 48/10/3 35/4/3 47/4/3
f 47/4/4 33/6/4 45/6/4
f 9/6/1 10/5/1 18/3/1
f 10/5/1 12/10/1 20/8/1
f 12/10/1 11/4/1 19/9/1
f 11/4/1 9/6/1 17/2/1
f 21/6/5 22/5/5 10/5/5
f 22/5/2 24/10/2 12/10/2
f 24/10/3 23/4/3 11/4/3
f 23/4/4 21/6/4 9/6/4
f 33/6/6 41/2/6 42/3/6
f 34/5/6 42/3/6 44/8/6
f 36/10/6 44/8/6 43/9/6
f 35/4/6 43/9/6 41/2/6
f 45/6/5 33/6/5 34/5/5
f 46/5/2 34/5/2 36/10/2
f 48/10/3 36/10/3 35/4/3
f 47/4/4 35/4/4 33/6/4
usemtl Mat.006
f 16/1/1 17/2/1 18/3/1
f 13/7/1 20/8/1 19/9/1
f 17/2/2 2/11/2 5/2/2
f 14/11/3 4/1/3 2/11/3
f 16/1/4 6/3/4 4/1/4
f 20/8/4 3/12/4 8/8/4
f 15/12/5 1/7/5 3/12/5
f 13/7/2 7/9/2 1/7/2
f 18/3/4 8/8/4 6/3/4
f 19/9/2 5/2/2 7/9/2
f 40/1/6 41/2/6 38/11/6
f 37/7/6 44/8/6 39/12/6
f 41/2/2 26/11/2 38/11/2
f 38/11/3 28/1/3 40/1/3
f 40/1/4 30/3/4 42/3/4
f 44/8/4 27/12/4 39/12/4
f 39/12/5 25/7/5 37/7/5
f 37/7/2 31/9/2 43/9/2
f 42/3/4 32/8/4 44/8/4
f 43/9/2 29/2/2 41/2/2
f 16/1/1 14/11/1 17/2/1
f 13/7/1 15/12/1 20/8/1
f 17/2/2 14/11/2 2/11/2
f 14/11/3 16/1/3 4/1/3
f 16/1/4 18/3/4 6/3/4
f 20/8/4 15/12/4 3/12/4
f 15/12/5 13/7/5 1/7/5
f 13/7/2 19/9/2 7/9/2
f 18/3/4 20/8/4 8/8/4
f 19/9/2 17/2/2 5/2/2
f 40/1/6 42/3/6 41/2/6
f 37/7/6 43/9/6 44/8/6
f 41/2/2 29/2/2 26/11/2
f 38/11/3 26/11/3 28/1/3
f 40/1/4 28/1/4 30/3/4
f 44/8/4 32/8/4 27/12/4
f 39/12/5 27/12/5 25/7/5
f 37/7/2 25/7/2 31/9/2
f 42/3/4 30/3/4 32/8/4
f 43/9/2 31/9/2 29/2/2
