# Blender 3.6.9
# www.blender.org
mtllib stone.mtl
o Cube.002
v -0.385661 -0.124563 -0.132162
v -0.430863 0.124563 -0.169500
v 0.182195 0.124563 -0.000599
v 0.217137 -0.124563 0.008009
v -0.306071 -0.124563 0.432115
v 0.214268 -0.124563 0.370916
v -0.355834 0.124563 0.461923
v 0.164444 0.124563 0.392754
vn -0.9682 -0.2097 0.1366
vn 0.2644 -0.0959 -0.9596
vn 0.9902 0.1392 0.0078
vn 0.1166 -0.0636 0.9911
vn -0.0000 1.0000 -0.0000
vn -0.0000 -1.0000 -0.0000
vn -0.9802 -0.1604 0.1165
vn 0.2265 -0.0019 -0.9740
vn 0.9804 0.1922 0.0442
vn 0.1312 -0.0919 0.9871
vt 0.000000 0.000000
s 0
f 7/1/1 1/1/1 5/1/1
f 3/1/2 1/1/2 2/1/2
f 3/1/3 6/1/3 4/1/3
f 8/1/4 5/1/4 6/1/4
f 3/1/5 7/1/5 8/1/5
f 4/1/6 5/1/6 1/1/6
f 7/1/7 2/1/7 1/1/7
f 3/1/8 4/1/8 1/1/8
f 3/1/9 8/1/9 6/1/9
f 8/1/10 7/1/10 5/1/10
f 3/1/5 2/1/5 7/1/5
f 4/1/6 6/1/6 5/1/6
